<svg width="64" height="7" viewBox="0 0 64 7" fill="none" xmlns="http://www.w3.org/2000/svg">
<path d="M2.37575 3.6C2.05575 3.6 1.77042 3.53067 1.51975 3.392C1.27442 3.248 1.08242 3.05333 0.94375 2.808C0.805083 2.55733 0.73575 2.272 0.73575 1.952C0.73575 1.63733 0.805083 1.35467 0.94375 1.104C1.08242 0.853333 1.27442 0.658666 1.51975 0.52C1.77042 0.376 2.05575 0.304 2.37575 0.304C2.69042 0.304 2.97042 0.376 3.21575 0.52C3.46642 0.658666 3.66108 0.853333 3.79975 1.104C3.93842 1.35467 4.00775 1.63733 4.00775 1.952C4.00775 2.272 3.93842 2.55733 3.79975 2.808C3.66108 3.05333 3.46642 3.248 3.21575 3.392C2.97042 3.53067 2.69042 3.6 2.37575 3.6ZM2.37575 3.272C2.75975 3.272 3.06908 3.14933 3.30375 2.904C3.53842 2.65867 3.65575 2.34133 3.65575 1.952C3.65575 1.568 3.53842 1.25333 3.30375 1.008C3.06908 0.762667 2.75975 0.64 2.37575 0.64C1.98642 0.64 1.67442 0.762667 1.43975 1.008C1.20508 1.25333 1.08775 1.568 1.08775 1.952C1.08775 2.34133 1.20508 2.65867 1.43975 2.904C1.67442 3.14933 1.98642 3.272 2.37575 3.272ZM1.71175 2.792V1.08H2.51175C2.68775 1.08 2.82908 1.128 2.93575 1.224C3.04242 1.32 3.09575 1.45067 3.09575 1.616C3.09575 1.87733 2.97042 2.04533 2.71975 2.12L3.16775 2.792H2.67175L2.27975 2.144H2.13575V2.792H1.71175ZM2.13575 1.824H2.45575C2.51442 1.824 2.56508 1.81067 2.60775 1.784C2.65042 1.752 2.67175 1.70133 2.67175 1.632C2.67175 1.568 2.65042 1.52267 2.60775 1.496C2.56508 1.46933 2.51442 1.456 2.45575 1.456H2.13575V1.824ZM6.97425 6V0.4H9.08625C9.66758 0.4 10.1076 0.536 10.4062 0.808C10.7049 1.08 10.8543 1.42133 10.8543 1.832C10.8543 2.18933 10.7583 2.47467 10.5663 2.688C10.3743 2.896 10.1423 3.03733 9.87025 3.112C10.0836 3.15467 10.2729 3.24 10.4383 3.368C10.6089 3.496 10.7423 3.656 10.8383 3.848C10.9343 4.04 10.9823 4.248 10.9823 4.472C10.9823 4.76 10.9103 5.02133 10.7663 5.256C10.6276 5.48533 10.4223 5.66667 10.1503 5.8C9.87825 5.93333 9.54492 6 9.15025 6H6.97425ZM7.82225 2.8H8.98225C9.30758 2.8 9.55558 2.72533 9.72625 2.576C9.89692 2.42133 9.98225 2.21067 9.98225 1.944C9.98225 1.68267 9.89692 1.47467 9.72625 1.32C9.56092 1.16533 9.30758 1.088 8.96625 1.088H7.82225V2.8ZM7.82225 5.304H9.03825C9.37958 5.304 9.64358 5.224 9.83025 5.064C10.0223 4.904 10.1183 4.68 10.1183 4.392C10.1183 4.104 10.0196 3.87733 9.82225 3.712C9.62492 3.54133 9.35825 3.456 9.02225 3.456H7.82225V5.304ZM13.2238 6.096C12.8878 6.096 12.6104 6.04 12.3918 5.928C12.1731 5.816 12.0104 5.66933 11.9038 5.488C11.7971 5.30133 11.7438 5.09867 11.7438 4.88C11.7438 4.496 11.8931 4.192 12.1918 3.968C12.4904 3.744 12.9171 3.632 13.4718 3.632H14.5118V3.56C14.5118 3.25067 14.4264 3.01867 14.2558 2.864C14.0904 2.70933 13.8744 2.632 13.6078 2.632C13.3731 2.632 13.1678 2.69067 12.9918 2.808C12.8211 2.92 12.7171 3.088 12.6798 3.312H11.8318C11.8584 3.024 11.9544 2.77867 12.1198 2.576C12.2904 2.368 12.5038 2.21067 12.7598 2.104C13.0211 1.992 13.3064 1.936 13.6158 1.936C14.1704 1.936 14.5998 2.08267 14.9038 2.376C15.2078 2.664 15.3598 3.05867 15.3598 3.56V6H14.6238L14.5518 5.32C14.4398 5.53867 14.2771 5.72267 14.0638 5.872C13.8504 6.02133 13.5704 6.096 13.2238 6.096ZM13.3918 5.408C13.6211 5.408 13.8131 5.35467 13.9678 5.248C14.1278 5.136 14.2504 4.98933 14.3358 4.808C14.4264 4.62667 14.4824 4.42667 14.5038 4.208H13.5598C13.2238 4.208 12.9838 4.26667 12.8398 4.384C12.7011 4.50133 12.6318 4.648 12.6318 4.824C12.6318 5.00533 12.6984 5.14933 12.8318 5.256C12.9704 5.35733 13.1571 5.408 13.3918 5.408ZM17.9344 6C17.545 6 17.2357 5.90667 17.0064 5.72C16.777 5.528 16.6624 5.18933 16.6624 4.704V2.744H15.9824V2.032H16.6624L16.7664 1.024H17.5104V2.032H18.6304V2.744H17.5104V4.704C17.5104 4.92267 17.5557 5.07467 17.6464 5.16C17.7424 5.24 17.905 5.28 18.1344 5.28H18.5904V6H17.9344ZM20.8488 6.096C20.5128 6.096 20.2354 6.04 20.0168 5.928C19.7981 5.816 19.6354 5.66933 19.5288 5.488C19.4221 5.30133 19.3688 5.09867 19.3688 4.88C19.3688 4.496 19.5181 4.192 19.8168 3.968C20.1154 3.744 20.5421 3.632 21.0968 3.632H22.1368V3.56C22.1368 3.25067 22.0514 3.01867 21.8808 2.864C21.7154 2.70933 21.4994 2.632 21.2328 2.632C20.9981 2.632 20.7928 2.69067 20.6168 2.808C20.4461 2.92 20.3421 3.088 20.3048 3.312H19.4568C19.4834 3.024 19.5794 2.77867 19.7448 2.576C19.9154 2.368 20.1288 2.21067 20.3848 2.104C20.6461 1.992 20.9314 1.936 21.2408 1.936C21.7954 1.936 22.2248 2.08267 22.5288 2.376C22.8328 2.664 22.9848 3.05867 22.9848 3.56V6H22.2488L22.1768 5.32C22.0648 5.53867 21.9021 5.72267 21.6888 5.872C21.4754 6.02133 21.1954 6.096 20.8488 6.096ZM21.0168 5.408C21.2461 5.408 21.4381 5.35467 21.5928 5.248C21.7528 5.136 21.8754 4.98933 21.9608 4.808C22.0514 4.62667 22.1074 4.42667 22.1288 4.208H21.1848C20.8488 4.208 20.6088 4.26667 20.4648 4.384C20.3261 4.50133 20.2568 4.648 20.2568 4.824C20.2568 5.00533 20.3234 5.14933 20.4568 5.256C20.5954 5.35733 20.7821 5.408 21.0168 5.408ZM25.5594 6C25.17 6 24.8607 5.90667 24.6314 5.72C24.402 5.528 24.2874 5.18933 24.2874 4.704V2.744H23.6074V2.032H24.2874L24.3914 1.024H25.1354V2.032H26.2554V2.744H25.1354V4.704C25.1354 4.92267 25.1807 5.07467 25.2714 5.16C25.3674 5.24 25.53 5.28 25.7594 5.28H26.2154V6H25.5594ZM28.4738 6.096C28.1378 6.096 27.8604 6.04 27.6418 5.928C27.4231 5.816 27.2604 5.66933 27.1538 5.488C27.0471 5.30133 26.9938 5.09867 26.9938 4.88C26.9938 4.496 27.1431 4.192 27.4418 3.968C27.7404 3.744 28.1671 3.632 28.7218 3.632H29.7618V3.56C29.7618 3.25067 29.6764 3.01867 29.5058 2.864C29.3404 2.70933 29.1244 2.632 28.8578 2.632C28.6231 2.632 28.4178 2.69067 28.2418 2.808C28.0711 2.92 27.9671 3.088 27.9298 3.312H27.0818C27.1084 3.024 27.2044 2.77867 27.3698 2.576C27.5404 2.368 27.7538 2.21067 28.0098 2.104C28.2711 1.992 28.5564 1.936 28.8658 1.936C29.4204 1.936 29.8498 2.08267 30.1538 2.376C30.4578 2.664 30.6098 3.05867 30.6098 3.56V6H29.8738L29.8018 5.32C29.6898 5.53867 29.5271 5.72267 29.3138 5.872C29.1004 6.02133 28.8204 6.096 28.4738 6.096ZM28.6418 5.408C28.8711 5.408 29.0631 5.35467 29.2178 5.248C29.3778 5.136 29.5004 4.98933 29.5858 4.808C29.6764 4.62667 29.7324 4.42667 29.7538 4.208H28.8098C28.4738 4.208 28.2338 4.26667 28.0898 4.384C27.9511 4.50133 27.8818 4.648 27.8818 4.824C27.8818 5.00533 27.9484 5.14933 28.0818 5.256C28.2204 5.35733 28.4071 5.408 28.6418 5.408ZM33.8305 6.096C33.5212 6.096 33.2465 6.03467 33.0065 5.912C32.7718 5.78933 32.5852 5.616 32.4465 5.392L32.3585 6H31.5985V0.24H32.4465V2.648C32.5745 2.46133 32.7505 2.296 32.9745 2.152C33.1985 2.008 33.4865 1.936 33.8385 1.936C34.2225 1.936 34.5612 2.02667 34.8545 2.208C35.1478 2.38933 35.3772 2.63733 35.5425 2.952C35.7132 3.26667 35.7985 3.624 35.7985 4.024C35.7985 4.424 35.7132 4.78133 35.5425 5.096C35.3772 5.40533 35.1478 5.65067 34.8545 5.832C34.5612 6.008 34.2198 6.096 33.8305 6.096ZM33.6865 5.36C34.0492 5.36 34.3478 5.23733 34.5825 4.992C34.8172 4.74133 34.9345 4.416 34.9345 4.016C34.9345 3.75467 34.8812 3.52267 34.7745 3.32C34.6678 3.11733 34.5212 2.96 34.3345 2.848C34.1478 2.73067 33.9318 2.672 33.6865 2.672C33.3238 2.672 33.0252 2.79733 32.7905 3.048C32.5612 3.29867 32.4465 3.62133 32.4465 4.016C32.4465 4.416 32.5612 4.74133 32.7905 4.992C33.0252 5.23733 33.3238 5.36 33.6865 5.36ZM37.1957 1.28C37.0357 1.28 36.9024 1.232 36.7957 1.136C36.6944 1.03467 36.6437 0.909333 36.6437 0.76C36.6437 0.610666 36.6944 0.488 36.7957 0.392C36.9024 0.290666 37.0357 0.24 37.1957 0.24C37.3557 0.24 37.4864 0.290666 37.5877 0.392C37.6944 0.488 37.7477 0.610666 37.7477 0.76C37.7477 0.909333 37.6944 1.03467 37.5877 1.136C37.4864 1.232 37.3557 1.28 37.1957 1.28ZM36.7717 6V2.032H37.6197V6H36.7717ZM40.4031 6C40.0138 6 39.7045 5.90667 39.4751 5.72C39.2458 5.528 39.1311 5.18933 39.1311 4.704V2.744H38.4511V2.032H39.1311L39.2351 1.024H39.9791V2.032H41.0991V2.744H39.9791V4.704C39.9791 4.92267 40.0245 5.07467 40.1151 5.16C40.2111 5.24 40.3738 5.28 40.6031 5.28H41.0591V6H40.4031ZM43.9091 6V5.392C44.2718 5.104 44.6185 4.81333 44.9491 4.52C45.2798 4.22667 45.5731 3.93867 45.8291 3.656C46.0905 3.368 46.2958 3.088 46.4451 2.816C46.5945 2.53867 46.6691 2.272 46.6691 2.016C46.6691 1.84533 46.6398 1.68533 46.5811 1.536C46.5225 1.38133 46.4265 1.25867 46.2931 1.168C46.1598 1.072 45.9811 1.024 45.7571 1.024C45.4211 1.024 45.1678 1.13067 44.9971 1.344C44.8318 1.55733 44.7518 1.81333 44.7571 2.112H43.9331C43.9385 1.71733 44.0211 1.38667 44.1811 1.12C44.3465 0.853333 44.5651 0.650666 44.8371 0.512C45.1145 0.373333 45.4265 0.304 45.7731 0.304C46.3011 0.304 46.7225 0.453333 47.0371 0.752C47.3571 1.04533 47.5171 1.456 47.5171 1.984C47.5171 2.29867 47.4398 2.61067 47.2851 2.92C47.1358 3.22933 46.9385 3.528 46.6931 3.816C46.4531 4.09867 46.1945 4.36533 45.9171 4.616C45.6398 4.86667 45.3758 5.09333 45.1251 5.296H47.6851V6H43.9091ZM50.7768 6.096C50.2701 6.096 49.8328 5.976 49.4648 5.736C49.1021 5.49067 48.8221 5.152 48.6248 4.72C48.4328 4.28267 48.3368 3.776 48.3368 3.2C48.3368 2.624 48.4328 2.12 48.6248 1.688C48.8221 1.25067 49.1021 0.912 49.4648 0.672C49.8328 0.426667 50.2701 0.304 50.7768 0.304C51.2834 0.304 51.7181 0.426667 52.0807 0.672C52.4434 0.912 52.7208 1.25067 52.9128 1.688C53.1101 2.12 53.2088 2.624 53.2088 3.2C53.2088 3.776 53.1101 4.28267 52.9128 4.72C52.7208 5.152 52.4434 5.49067 52.0807 5.736C51.7181 5.976 51.2834 6.096 50.7768 6.096ZM50.7768 5.336C51.0808 5.336 51.3501 5.25067 51.5848 5.08C51.8248 4.90933 52.0114 4.664 52.1448 4.344C52.2781 4.024 52.3448 3.64267 52.3448 3.2C52.3448 2.75733 52.2781 2.376 52.1448 2.056C52.0114 1.736 51.8248 1.49067 51.5848 1.32C51.3501 1.14933 51.0808 1.064 50.7768 1.064C50.4674 1.064 50.1954 1.14933 49.9608 1.32C49.7261 1.49067 49.5421 1.736 49.4088 2.056C49.2754 2.376 49.2088 2.75733 49.2088 3.2C49.2088 3.64267 49.2754 4.024 49.4088 4.344C49.5421 4.664 49.7261 4.90933 49.9608 5.08C50.1954 5.25067 50.4674 5.336 50.7768 5.336ZM53.9794 6V5.392C54.3421 5.104 54.6888 4.81333 55.0194 4.52C55.3501 4.22667 55.6434 3.93867 55.8994 3.656C56.1608 3.368 56.3661 3.088 56.5154 2.816C56.6648 2.53867 56.7394 2.272 56.7394 2.016C56.7394 1.84533 56.7101 1.68533 56.6514 1.536C56.5928 1.38133 56.4968 1.25867 56.3634 1.168C56.2301 1.072 56.0514 1.024 55.8274 1.024C55.4914 1.024 55.2381 1.13067 55.0674 1.344C54.9021 1.55733 54.8221 1.81333 54.8274 2.112H54.0034C54.0088 1.71733 54.0914 1.38667 54.2514 1.12C54.4168 0.853333 54.6354 0.650666 54.9074 0.512C55.1848 0.373333 55.4968 0.304 55.8434 0.304C56.3714 0.304 56.7928 0.453333 57.1074 0.752C57.4274 1.04533 57.5874 1.456 57.5874 1.984C57.5874 2.29867 57.5101 2.61067 57.3554 2.92C57.2061 3.22933 57.0088 3.528 56.7634 3.816C56.5234 4.09867 56.2648 4.36533 55.9874 4.616C55.7101 4.86667 55.4461 5.09333 55.1954 5.296H57.7554V6H53.9794ZM60.8471 6.096C60.3404 6.096 59.9031 5.976 59.5351 5.736C59.1724 5.49067 58.8924 5.152 58.6951 4.72C58.5031 4.28267 58.4071 3.776 58.4071 3.2C58.4071 2.624 58.5031 2.12 58.6951 1.688C58.8924 1.25067 59.1724 0.912 59.5351 0.672C59.9031 0.426667 60.3404 0.304 60.8471 0.304C61.3537 0.304 61.7884 0.426667 62.1511 0.672C62.5137 0.912 62.7911 1.25067 62.9831 1.688C63.1804 2.12 63.2791 2.624 63.2791 3.2C63.2791 3.776 63.1804 4.28267 62.9831 4.72C62.7911 5.152 62.5137 5.49067 62.1511 5.736C61.7884 5.976 61.3537 6.096 60.8471 6.096ZM60.8471 5.336C61.1511 5.336 61.4204 5.25067 61.6551 5.08C61.8951 4.90933 62.0817 4.664 62.2151 4.344C62.3484 4.024 62.4151 3.64267 62.4151 3.2C62.4151 2.75733 62.3484 2.376 62.2151 2.056C62.0817 1.736 61.8951 1.49067 61.6551 1.32C61.4204 1.14933 61.1511 1.064 60.8471 1.064C60.5377 1.064 60.2657 1.14933 60.0311 1.32C59.7964 1.49067 59.6124 1.736 59.4791 2.056C59.3457 2.376 59.2791 2.75733 59.2791 3.2C59.2791 3.64267 59.3457 4.024 59.4791 4.344C59.6124 4.664 59.7964 4.90933 60.0311 5.08C60.2657 5.25067 60.5377 5.336 60.8471 5.336Z" fill="#FFE9D5"/>
</svg>
